# xmcd
# 
# Track frame offsets:
#     150
#     53540
#     93648
#     142377
#     185695
#     255266
#     312913
# 
# Disc length: 4750
# 
# Revision: 0
# Processed by: cddbd v1.5.2PL0 Copyright (c) Steve Scherf et al.
# Submitted via: fre:ac v1.0.17
# 
DISCID=60128c07
DTITLE=Branislav Jobus - Laskave rozpravky
DYEAR=0
DGENRE=Speech
TTITLE0=Uvod
TTITLE1=Laska k cestovaniu
TTITLE2=Laska k u klamstvu
TTITLE3=Laska k chvaleniu
TTITLE4=Laska k lakomstvu
TTITLE5=Laska k spine a neporiadku
TTITLE6=Laska k sebe samemu
EXTD=
EXTT0=
EXTT1=
EXTT2=
EXTT3=
EXTT4=
EXTT5=
EXTT6=
PLAYORDER=
